<?xml version="1.0" encoding="utf-8" ?>
<!DOCTYPE svg PUBLIC "-//W3C//DTD SVG 1.1//EN" "http://www.w3.org/Graphics/SVG/1.1/DTD/svg11.dtd">
<svg height="516" version="1.1" width="556" xmlns="http://www.w3.org/2000/svg">
<rect fill="#ffffff" height="488" stroke="#ffffff" stroke-width="1" width="424" x="118" y="14"/>
<rect fill="none" height="488" stroke="#000000" stroke-width="1" width="424" x="118" y="14"/>
<ellipse cx="254" cy="100" fill="#000000" rx="72.0" ry="22.0" stroke="#000000" stroke-width="1"/>
<ellipse cx="254" cy="100" fill="#ffffff" rx="71.0" ry="21.0" stroke="#ffffff" stroke-width="1"/>
<text font-family="Lucida Grande" font-size="13" x="216" y="101">
Registrieren</text>
<text font-family="Lucida Grande" font-size="13" x="22" y="267">
Benutzer</text>
<ellipse cx="49" cy="215" fill="#000000" rx="8.0" ry="7.5" stroke="#000000" stroke-width="1"/>
<ellipse cx="49" cy="215" fill="#ffffff" rx="7.0" ry="6.5" stroke="#ffffff" stroke-width="1"/>
<line fill="#000000" stroke="#000000" stroke-width="1" x1="49" x2="49" y1="223" y2="238"/>
<line fill="#000000" stroke="#000000" stroke-width="1" x1="39" x2="59" y1="228" y2="228"/>
<line fill="#000000" stroke="#000000" stroke-width="1" x1="49" x2="44" y1="238" y2="253"/>
<line fill="#000000" stroke="#000000" stroke-width="1" x1="49" x2="54" y1="238" y2="253"/>
<polyline fill="none" points="219,119 56,210" stroke="#000000" stroke-width="1"/>
<ellipse cx="190" cy="52" fill="#000000" rx="56.0" ry="22.0" stroke="#000000" stroke-width="1"/>
<ellipse cx="190" cy="52" fill="#ffffff" rx="55.0" ry="21.0" stroke="#ffffff" stroke-width="1"/>
<text font-family="Lucida Grande" font-size="13" x="158" y="53">
Anmelden</text>
<polyline fill="none" points="54,208 171,72" stroke="#000000" stroke-width="1"/>
<ellipse cx="201" cy="246" fill="#000000" rx="67.0" ry="24.0" stroke="#000000" stroke-width="1"/>
<ellipse cx="201" cy="246" fill="#ffffff" rx="66.0" ry="23.0" stroke="#ffffff" stroke-width="1"/>
<text font-family="Lucida Grande" font-size="13" x="148" y="247">
Produkte suchen</text>
<polyline fill="none" points="59,228 137,237" stroke="#000000" stroke-width="1"/>
<ellipse cx="395" cy="175" fill="#000000" rx="109.0" ry="33.0" stroke="#000000" stroke-width="1"/>
<ellipse cx="395" cy="175" fill="#ffffff" rx="108.0" ry="32.0" stroke="#ffffff" stroke-width="1"/>
<text font-family="Lucida Grande" font-size="13" x="298" y="176">
Rezepte angeboten bekommen</text>
<line fill="#000000" stroke="#000000" stroke-width="1" x1="324" x2="320" y1="200" y2="201"/>
<line fill="#000000" stroke="#000000" stroke-width="1" x1="315" x2="310" y1="203" y2="205"/>
<line fill="#000000" stroke="#000000" stroke-width="1" x1="305" x2="301" y1="206" y2="208"/>
<line fill="#000000" stroke="#000000" stroke-width="1" x1="296" x2="291" y1="210" y2="212"/>
<line fill="#000000" stroke="#000000" stroke-width="1" x1="286" x2="282" y1="213" y2="215"/>
<line fill="#000000" stroke="#000000" stroke-width="1" x1="277" x2="272" y1="217" y2="219"/>
<line fill="#000000" stroke="#000000" stroke-width="1" x1="267" x2="263" y1="220" y2="222"/>
<line fill="#000000" stroke="#000000" stroke-width="1" x1="258" x2="253" y1="224" y2="225"/>
<line fill="#000000" stroke="#000000" stroke-width="1" x1="248" x2="247" y1="227" y2="228"/>
<line fill="#000000" stroke="#000000" stroke-width="1" x1="255" x2="247" y1="217" y2="228"/>
<line fill="#000000" stroke="#000000" stroke-width="1" x1="260" x2="247" y1="230" y2="228"/>
<text font-family="Lucida Grande" font-size="13" x="195" y="195">
&lt;&lt;extend&gt;&gt;</text>
<ellipse cx="246" cy="469" fill="#000000" rx="104.0" ry="31.0" stroke="#000000" stroke-width="1"/>
<ellipse cx="246" cy="469" fill="#ffffff" rx="103.0" ry="30.0" stroke="#ffffff" stroke-width="1"/>
<text font-family="Lucida Grande" font-size="13" x="155" y="470">
Warenkorb zusammenstellen</text>
<polyline fill="none" points="54,277 216,439" stroke="#000000" stroke-width="1"/>
<ellipse cx="462" cy="468" fill="#000000" rx="56.0" ry="22.0" stroke="#000000" stroke-width="1"/>
<ellipse cx="462" cy="468" fill="#ffffff" rx="55.0" ry="21.0" stroke="#ffffff" stroke-width="1"/>
<text font-family="Lucida Grande" font-size="13" x="434" y="469">
bezahlen</text>
<ellipse cx="294" cy="352" fill="#000000" rx="80.0" ry="26.0" stroke="#000000" stroke-width="1"/>
<ellipse cx="294" cy="352" fill="#ffffff" rx="79.0" ry="25.0" stroke="#ffffff" stroke-width="1"/>
<text font-family="Lucida Grande" font-size="13" x="228" y="353">
Produkte hinzufügen</text>
<line fill="#000000" stroke="#000000" stroke-width="1" x1="283" x2="282" y1="377" y2="381"/>
<line fill="#000000" stroke="#000000" stroke-width="1" x1="280" x2="278" y1="386" y2="391"/>
<line fill="#000000" stroke="#000000" stroke-width="1" x1="276" x2="274" y1="395" y2="400"/>
<line fill="#000000" stroke="#000000" stroke-width="1" x1="272" x2="270" y1="405" y2="409"/>
<line fill="#000000" stroke="#000000" stroke-width="1" x1="268" x2="266" y1="414" y2="419"/>
<line fill="#000000" stroke="#000000" stroke-width="1" x1="264" x2="262" y1="423" y2="428"/>
<line fill="#000000" stroke="#000000" stroke-width="1" x1="260" x2="258" y1="433" y2="438"/>
<line fill="#000000" stroke="#000000" stroke-width="1" x1="256" x2="258" y1="424" y2="438"/>
<line fill="#000000" stroke="#000000" stroke-width="1" x1="269" x2="258" y1="429" y2="438"/>
<text font-family="Lucida Grande" font-size="13" x="186" y="397">
&lt;&lt;include&gt;&gt;</text>
<line fill="#000000" stroke="#000000" stroke-width="1" x1="406" x2="401" y1="468" y2="468"/>
<line fill="#000000" stroke="#000000" stroke-width="1" x1="396" x2="391" y1="468" y2="468"/>
<line fill="#000000" stroke="#000000" stroke-width="1" x1="386" x2="381" y1="468" y2="468"/>
<line fill="#000000" stroke="#000000" stroke-width="1" x1="376" x2="371" y1="468" y2="468"/>
<line fill="#000000" stroke="#000000" stroke-width="1" x1="366" x2="361" y1="468" y2="468"/>
<line fill="#000000" stroke="#000000" stroke-width="1" x1="356" x2="351" y1="468" y2="468"/>
<line fill="#000000" stroke="#000000" stroke-width="1" x1="361" x2="349" y1="461" y2="468"/>
<line fill="#000000" stroke="#000000" stroke-width="1" x1="361" x2="349" y1="475" y2="468"/>
<text font-family="Lucida Grande" font-size="13" x="337" y="444">
&lt;&lt;extend&gt;&gt;</text>
</svg>
